<svg width="22" height="22" viewBox="0 0 22 22" fill="none" xmlns="http://www.w3.org/2000/svg">
<g clip-path="url(#clip0_0_104)">
<path d="M8.70833 2.29167C8.70833 1.02575 9.73408 0 11 0C12.2659 0 13.2917 1.02575 13.2917 2.29167C13.2917 3.55758 12.2659 4.58333 11 4.58333C9.73408 4.58333 8.70833 3.55758 8.70833 2.29167ZM9.46825 9.41783L10.2603 10.1466C10.6783 10.5316 11.3218 10.5316 11.7398 10.1466L12.5043 9.4435C13.1175 8.89442 13.8637 8.53875 14.6474 8.371L14.6584 8.35267C14.2798 6.71917 12.7857 5.5 11 5.5C9.21433 5.5 7.72108 6.71917 7.34158 8.35175L7.35258 8.36917C8.11433 8.52775 8.84767 8.86325 9.46825 9.41783ZM11.1008 13.5749C12.2063 14.6144 12.8333 16.0646 12.8333 17.5817V21.0833C12.8333 21.5893 12.4227 22 11.9167 22H5.06092C4.59892 22 4.15342 21.8258 3.81425 21.5114L2.17158 19.8843C0.781917 18.5075 0 16.632 0 14.6749V5.00683C0 3.663 1.15592 2.58958 2.52817 2.72708C3.72075 2.84625 4.58333 3.93892 4.58333 5.13792V10.4949C4.44492 10.6572 4.31475 10.8277 4.20108 11.0156C3.37058 12.3933 3.51908 14.1918 4.54758 15.4596L6.18658 17.5716C6.49733 17.9713 7.073 18.0437 7.47267 17.7338C7.87233 17.4231 7.94475 16.8474 7.63492 16.4478L5.99592 14.3358C5.4505 13.6629 5.324 12.7041 5.77133 11.9625C6.46067 10.8203 7.97592 10.6498 8.899 11.506L11.1008 13.5758V13.5749ZM22 5.00683V14.6758C22 16.6329 21.2172 18.5093 19.8266 19.8871L18.1858 21.5114C17.8466 21.8258 17.402 22 16.9391 22H14.4971C14.5997 21.7122 14.6657 21.406 14.6657 21.0833V18.2307L17.4506 15.4587C18.4791 14.1909 18.6285 12.3924 17.7971 11.0147C17.6843 10.8277 17.5532 10.6562 17.4148 10.494V5.137C17.4148 3.938 18.2774 2.84625 19.47 2.72617C20.8413 2.58867 21.9982 3.66208 21.9982 5.00592L22 5.00683ZM16.0032 14.3348L14.4494 15.8767C14.1176 14.498 13.4017 13.2229 12.3567 12.2393L12.3383 12.2219L13.101 11.5051C14.0241 10.6489 15.5393 10.8194 16.2287 11.9616C16.676 12.7041 16.5486 13.662 16.0032 14.3348Z" fill="#88959C"/>
</g>
<defs>
<clipPath id="clip0_0_104">
<rect width="22" height="22" fill="white"/>
</clipPath>
</defs>
</svg>
