<svg width="22" height="22" viewBox="0 0 22 22" fill="none" xmlns="http://www.w3.org/2000/svg">
<g clip-path="url(#clip0_0_123)">
<path d="M11 22C9.4875 22 8.25 20.7625 8.25 19.25V2.75C8.25 1.2375 9.4875 0 11 0C12.5125 0 13.75 1.2375 13.75 2.75V19.25C13.75 20.7625 12.5125 22 11 22ZM19.25 22C17.7375 22 16.5 20.7625 16.5 19.25V8.25C16.5 6.7375 17.7375 5.5 19.25 5.5C20.7625 5.5 22 6.7375 22 8.25V19.25C22 20.7625 20.7625 22 19.25 22ZM2.75 22C1.2375 22 0 20.7625 0 19.25V13.75C0 12.2375 1.2375 11 2.75 11C4.2625 11 5.5 12.2375 5.5 13.75V19.25C5.5 20.7625 4.2625 22 2.75 22Z" fill="#88959C"/>
</g>
<defs>
<clipPath id="clip0_0_123">
<rect width="22" height="22" fill="white"/>
</clipPath>
</defs>
</svg>
