<svg width="22" height="22" viewBox="0 0 22 22" fill="none" xmlns="http://www.w3.org/2000/svg">
<g clip-path="url(#clip0_0_109)">
<path d="M14.3013 0.0332031L13.6541 1.32662C13.4992 1.63737 13.1811 1.83354 12.8337 1.83354H9.16705C8.81963 1.83354 8.50247 1.63737 8.34664 1.32662L7.7013 0.0332031C5.43255 0.305453 3.66797 2.24237 3.66797 4.58354V17.4169C3.66797 19.9441 5.72405 22.0002 8.2513 22.0002H13.7513C16.2786 22.0002 18.3346 19.9441 18.3346 17.4169V4.58354C18.3346 2.24237 16.5701 0.30637 14.3013 0.0332031ZM11.918 19.2502H10.0846C9.57864 19.2502 9.16797 18.8395 9.16797 18.3335C9.16797 17.8275 9.57864 17.4169 10.0846 17.4169H11.918C12.424 17.4169 12.8346 17.8275 12.8346 18.3335C12.8346 18.8395 12.424 19.2502 11.918 19.2502Z" fill="#88959C"/>
</g>
<defs>
<clipPath id="clip0_0_109">
<rect width="22" height="22" fill="white"/>
</clipPath>
</defs>
</svg>
