<svg width="22" height="22" viewBox="0 0 22 22" fill="none" xmlns="http://www.w3.org/2000/svg">
<path d="M21.0953 3.46127L16.8805 7.67611C16.1646 8.39202 15.0041 8.39202 14.2882 7.67611C13.5722 6.96019 13.5722 5.79969 14.2882 5.08377L18.4911 0.879023L18.2234 0.743357C17.2499 0.249273 16.2067 -0.000976562 15.1242 -0.000976562C11.3328 -0.000976562 8.24916 3.08269 8.24916 6.87402C8.24916 7.75311 8.41232 8.60286 8.73591 9.41044L0.841574 17.3057C-0.229092 18.3782 -0.229092 20.1217 0.841574 21.1942C1.37782 21.7304 2.08182 21.9981 2.78582 21.9981C3.48982 21.9981 4.19474 21.7304 4.73099 21.1942L12.6427 13.2824C13.4357 13.5932 14.268 13.7499 15.1251 13.7499C18.9164 13.7499 22.0001 10.6663 22.0001 6.87494C22.0001 5.76761 21.7407 4.70611 21.2292 3.71977L21.0953 3.46127Z" fill="#88959C"/>
</svg>
